# xmcd CD database file
#
# Track frame offsets:
#	150
#	7787
#	30285
#	44640
#	62682
#	102510
#	123230
#	141790
#	174940
#	190225
#	213662
#	232322
#	249905
#
# Disc length: 3805 seconds
#
# Revision: 0
# Processed by: cddbd v1.5.1PL0 Copyright (c) Steve Scherf et al.
# Submitted via: CDex 1.51
#
DISCID=ae0edb0d
DTITLE=SINNER - Judgement Day
DYEAR=1996
DGENRE=Heavy Metal
TTITLE0=Smoke And Mirror
TTITLE1=Used To The Truth
TTITLE2=Blue Tattoo
TTITLE3=White Lightning
TTITLE4=Judgement Day
TTITLE5=Pray For Mercy
TTITLE6=Jump The Gun
TTITLE7=Streets Of Sin
TTITLE8=Deathwalker
TTITLE9=School Of Hard Knocks
TTITLE10=The Fugitive
TTITLE11=Troublemaker
TTITLE12=The River Runs Dry
EXTD=YEAR: 1996
EXTT0=
EXTT1=
EXTT2=
EXTT3=
EXTT4=
EXTT5=
EXTT6=
EXTT7=
EXTT8=
EXTT9=
EXTT10=
EXTT11=
EXTT12=
PLAYORDER=
